# xmcd CD database file
#
# Track frame offsets:
#	150
#	15602
#	34825
#	57485
#	75200
#	95530
#	114720
#	132627
#	145300
#	164490
#	182505
#	202127
#
# Disc length: 2998 seconds
#
# Revision: 0
# Processed by: cddbd v1.4PL0 Copyright (c) Steve Scherf et al.
# Submitted via: Feurio! 1.63 - http://www.feurio.com
#
DISCID=a90bb40c
DTITLE=Cadillac Blues Band - Poison Booze
DYEAR=1995
DGENRE=blues
TTITLE0=Mama Missed The Voodoo Club
TTITLE1=Chicken Farm
TTITLE2=Leave It All Behind
TTITLE3=Memory Street
TTITLE4=Poison Booze In The Bottle
TTITLE5=Good Thing
TTITLE6=No More Greasy Towels
TTITLE7=Waiting For A Telephone Call
TTITLE8=Cadillac Ride
TTITLE9=Hey Jack
TTITLE10=Funky Cool
TTITLE11=Boogey Man
EXTD=in-akustik GmbH
EXTT0=
EXTT1=
EXTT2=
EXTT3=
EXTT4=
EXTT5=
EXTT6=
EXTT7=
EXTT8=
EXTT9=
EXTT10=
EXTT11=
PLAYORDER=
